<svg xmlns="http://www.w3.org/2000/svg" xmlns:xlink="http://www.w3.org/1999/xlink" width="500" zoomAndPan="magnify" viewBox="0 0 375 374.999991" height="500" preserveAspectRatio="xMidYMid meet" version="1.0"><defs><clipPath id="9ce8a30683"><path d="M 79 310 L 124 310 L 124 354.492188 L 79 354.492188 Z M 79 310 " clip-rule="nonzero"/></clipPath><clipPath id="abf7a22441"><path d="M 246 310 L 291 310 L 291 354.492188 L 246 354.492188 Z M 246 310 " clip-rule="nonzero"/></clipPath><clipPath id="29300eeede"><path d="M 246 20.742188 L 291 20.742188 L 291 65 L 246 65 Z M 246 20.742188 " clip-rule="nonzero"/></clipPath><clipPath id="49c9044853"><path d="M 330 165 L 374.960938 165 L 374.960938 210 L 330 210 Z M 330 165 " clip-rule="nonzero"/></clipPath><clipPath id="4669ff5eba"><path d="M 79 20.742188 L 124 20.742188 L 124 65 L 79 65 Z M 79 20.742188 " clip-rule="nonzero"/></clipPath></defs><path fill="#e2e5ec" d="M 285.042969 187.558594 C 285.042969 225.75 263.726562 258.894531 232.328125 275.753906 C 249.746094 257.804688 260.460938 233.203125 260.460938 206.195312 C 260.460938 151.027344 215.824219 106.355469 160.644531 106.355469 C 143.570312 106.355469 127.527344 110.65625 113.429688 118.171875 C 131.59375 99.359375 157.035156 87.71875 185.226562 87.71875 C 240.40625 87.71875 285.042969 132.390625 285.042969 187.558594 Z M 285.042969 187.558594 " fill-opacity="1" fill-rule="nonzero"/><path fill="#2f4265" d="M 276.917969 324.175781 C 275.945312 324.175781 274.960938 323.929688 274.058594 323.410156 C 271.320312 321.824219 270.378906 318.320312 271.960938 315.574219 L 339.265625 198.78125 C 340.84375 196.039062 344.351562 195.09375 347.09375 196.679688 C 349.835938 198.265625 350.773438 201.769531 349.195312 204.515625 L 281.886719 321.308594 C 280.824219 323.148438 278.898438 324.175781 276.917969 324.175781 Z M 276.917969 324.175781 " fill-opacity="1" fill-rule="nonzero"/><path fill="#2f4265" d="M 344.234375 179.320312 C 342.253906 179.320312 340.328125 178.289062 339.265625 176.453125 L 271.960938 59.660156 C 270.378906 56.917969 271.320312 53.410156 274.058594 51.828125 C 276.792969 50.234375 280.300781 51.1875 281.886719 53.925781 L 349.195312 170.71875 C 350.773438 173.460938 349.835938 176.96875 347.09375 178.550781 C 346.191406 179.074219 345.207031 179.320312 344.234375 179.320312 Z M 344.234375 179.320312 " fill-opacity="1" fill-rule="nonzero"/><path fill="#2f4265" d="M 252.585938 48.496094 L 117.90625 48.496094 C 114.738281 48.496094 112.175781 45.929688 112.175781 42.757812 C 112.175781 39.589844 114.738281 37.023438 117.90625 37.023438 L 252.585938 37.023438 C 255.75 37.023438 258.3125 39.589844 258.3125 42.757812 C 258.3125 45.929688 255.75 48.496094 252.585938 48.496094 Z M 252.585938 48.496094 " fill-opacity="1" fill-rule="nonzero"/><path fill="#2f4265" d="M 26.1875 179.320312 C 25.214844 179.320312 24.230469 179.074219 23.328125 178.550781 C 20.585938 176.96875 19.648438 173.460938 21.226562 170.71875 L 88.601562 53.925781 C 90.183594 51.1875 93.679688 50.234375 96.429688 51.828125 C 99.171875 53.410156 100.105469 56.917969 98.527344 59.660156 L 31.15625 176.453125 C 30.089844 178.289062 28.167969 179.320312 26.1875 179.320312 Z M 26.1875 179.320312 " fill-opacity="1" fill-rule="nonzero"/><path fill="#2f4265" d="M 93.570312 324.175781 C 91.589844 324.175781 89.664062 323.148438 88.601562 321.308594 L 21.226562 204.515625 C 19.648438 201.769531 20.585938 198.265625 23.328125 196.679688 C 26.066406 195.09375 29.566406 196.039062 31.15625 198.78125 L 98.527344 315.574219 C 100.105469 318.320312 99.167969 321.824219 96.429688 323.410156 C 95.523438 323.929688 94.539062 324.175781 93.570312 324.175781 Z M 93.570312 324.175781 " fill-opacity="1" fill-rule="nonzero"/><path fill="#2f4265" d="M 252.585938 338.207031 L 117.90625 338.207031 C 114.738281 338.207031 112.175781 335.640625 112.175781 332.472656 C 112.175781 329.300781 114.738281 326.738281 117.90625 326.738281 L 252.585938 326.738281 C 255.75 326.738281 258.3125 329.300781 258.3125 332.472656 C 258.3125 335.640625 255.75 338.207031 252.585938 338.207031 Z M 252.585938 338.207031 " fill-opacity="1" fill-rule="nonzero"/><path fill="#2f4265" d="M 185.238281 293.242188 C 127.023438 293.242188 79.667969 245.84375 79.667969 187.585938 C 79.667969 129.355469 127.023438 81.984375 185.238281 81.984375 C 243.425781 81.984375 290.757812 129.355469 290.757812 187.585938 C 290.757812 245.84375 243.425781 293.242188 185.238281 293.242188 Z M 185.238281 93.453125 C 133.34375 93.453125 91.125 135.675781 91.125 187.585938 C 91.125 239.519531 133.34375 281.773438 185.238281 281.773438 C 237.105469 281.773438 279.296875 239.519531 279.296875 187.585938 C 279.296875 135.675781 237.105469 93.453125 185.238281 93.453125 Z M 185.238281 93.453125 " fill-opacity="1" fill-rule="nonzero"/><path fill="#2f4265" d="M 235.1875 106.824219 C 234.214844 106.824219 233.230469 106.578125 232.328125 106.058594 C 229.589844 104.472656 228.648438 100.96875 230.230469 98.222656 L 255.785156 53.898438 C 257.363281 51.160156 260.863281 50.207031 263.613281 51.796875 C 266.351562 53.382812 267.292969 56.890625 265.710938 59.632812 L 240.15625 103.957031 C 239.09375 105.792969 237.167969 106.824219 235.1875 106.824219 Z M 235.1875 106.824219 " fill-opacity="1" fill-rule="nonzero"/><path fill="#2f4265" d="M 109.757812 324.222656 C 108.785156 324.222656 107.796875 323.976562 106.894531 323.449219 C 104.15625 321.863281 103.21875 318.359375 104.800781 315.613281 L 130.414062 271.289062 C 132 268.550781 135.503906 267.605469 138.242188 269.199219 C 140.980469 270.785156 141.917969 274.292969 140.335938 277.035156 L 114.722656 321.359375 C 113.660156 323.199219 111.734375 324.222656 109.757812 324.222656 Z M 109.757812 324.222656 " fill-opacity="1" fill-rule="nonzero"/><path fill="#2f4265" d="M 135.378906 106.824219 C 133.402344 106.824219 131.476562 105.800781 130.414062 103.964844 L 104.800781 59.636719 C 103.21875 56.894531 104.15625 53.390625 106.894531 51.804688 C 109.632812 50.207031 113.136719 51.152344 114.722656 53.894531 L 140.335938 98.21875 C 141.917969 100.960938 140.980469 104.46875 138.242188 106.050781 C 137.339844 106.578125 136.351562 106.824219 135.378906 106.824219 Z M 135.378906 106.824219 " fill-opacity="1" fill-rule="nonzero"/><path fill="#2f4265" d="M 260.695312 324.222656 C 258.714844 324.222656 256.785156 323.191406 255.726562 321.355469 L 230.171875 277.03125 C 228.589844 274.285156 229.53125 270.78125 232.269531 269.195312 C 235.011719 267.609375 238.515625 268.558594 240.097656 271.296875 L 265.652344 315.621094 C 267.234375 318.363281 266.292969 321.871094 263.554688 323.457031 C 262.652344 323.976562 261.664062 324.222656 260.695312 324.222656 Z M 260.695312 324.222656 " fill-opacity="1" fill-rule="nonzero"/><path fill="#2f4265" d="M 85.394531 193.363281 L 34.332031 193.363281 C 31.164062 193.363281 28.601562 190.800781 28.601562 187.628906 C 28.601562 184.460938 31.164062 181.894531 34.332031 181.894531 L 85.394531 181.894531 C 88.5625 181.894531 91.125 184.460938 91.125 187.628906 C 91.125 190.800781 88.5625 193.363281 85.394531 193.363281 Z M 85.394531 193.363281 " fill-opacity="1" fill-rule="nonzero"/><path fill="#2f4265" d="M 336.128906 193.363281 L 285.027344 193.363281 C 281.863281 193.363281 279.296875 190.800781 279.296875 187.628906 C 279.296875 184.460938 281.863281 181.894531 285.027344 181.894531 L 336.128906 181.894531 C 339.292969 181.894531 341.859375 184.460938 341.859375 187.628906 C 341.859375 190.800781 339.292969 193.363281 336.128906 193.363281 Z M 336.128906 193.363281 " fill-opacity="1" fill-rule="nonzero"/><path fill="#004aad" d="M 147.179688 173.636719 C 145.710938 173.636719 144.246094 173.074219 143.125 171.953125 C 140.363281 169.1875 138.839844 165.507812 138.839844 161.589844 C 138.839844 157.667969 140.367188 153.988281 143.128906 151.222656 C 145.875 148.480469 149.539062 146.960938 153.445312 146.960938 C 153.460938 146.960938 153.480469 146.960938 153.496094 146.960938 C 157.394531 146.976562 161.046875 148.488281 163.777344 151.234375 C 166.011719 153.472656 166.011719 157.101562 163.773438 159.34375 C 161.53125 161.570312 157.90625 161.582031 155.667969 159.332031 C 155.089844 158.753906 154.304688 158.4375 153.457031 158.429688 C 153.09375 158.4375 152.023438 158.542969 151.230469 159.335938 C 150.628906 159.9375 150.300781 160.738281 150.300781 161.589844 C 150.300781 162.445312 150.628906 163.246094 151.230469 163.847656 C 153.46875 166.085938 153.46875 169.714844 151.230469 171.953125 C 150.109375 173.074219 148.644531 173.636719 147.179688 173.636719 Z M 147.179688 173.636719 " fill-opacity="1" fill-rule="nonzero"/><path fill="#004aad" d="M 229.855469 254.675781 C 226.53125 254.675781 223.210938 254.664062 218.941406 254.644531 C 217.433594 254.640625 215.984375 254.035156 214.914062 252.964844 L 163.386719 201.394531 C 161.148438 199.15625 161.148438 195.527344 163.386719 193.285156 C 165.625 191.046875 169.25 191.046875 171.488281 193.285156 L 221.347656 243.1875 C 226.503906 243.210938 230.347656 243.207031 235.015625 243.195312 L 235.015625 232.519531 L 223.648438 230.003906 C 221.355469 229.496094 219.605469 227.640625 219.226562 225.324219 L 217.296875 213.417969 L 205.402344 211.484375 C 202.96875 211.089844 201.0625 209.179688 200.667969 206.742188 L 198.421875 192.9375 L 185.128906 179.632812 C 182.890625 177.390625 182.890625 173.761719 185.128906 171.523438 C 187.367188 169.285156 190.992188 169.285156 193.230469 171.523438 L 206.8125 185.109375 C 208.15625 185.960938 209.121094 187.316406 209.378906 188.921875 L 211.316406 200.828125 L 223.210938 202.761719 C 225.644531 203.160156 227.550781 205.066406 227.949219 207.503906 L 229.917969 219.644531 L 241.984375 222.316406 C 244.605469 222.898438 246.476562 225.230469 246.476562 227.917969 L 246.476562 248.910156 C 246.476562 252.070312 243.925781 254.636719 240.769531 254.644531 C 236.503906 254.664062 233.179688 254.675781 229.855469 254.675781 Z M 229.855469 254.675781 " fill-opacity="1" fill-rule="nonzero"/><path fill="#2f4265" d="M 155.324219 205.164062 C 144.636719 205.164062 133.945312 201.09375 125.8125 192.949219 C 109.5625 176.6875 109.582031 150.203125 125.859375 133.917969 C 142.109375 117.65625 168.542969 117.65625 184.792969 133.917969 C 192.675781 141.804688 197.023438 152.285156 197.042969 163.425781 C 197.054688 174.574219 192.722656 185.058594 184.84375 192.949219 C 176.703125 201.09375 166.015625 205.164062 155.324219 205.164062 Z M 155.324219 133.191406 C 147.589844 133.191406 139.851562 136.136719 133.960938 142.027344 C 122.15625 153.84375 122.132812 173.046875 133.914062 184.839844 C 145.722656 196.664062 164.929688 196.652344 176.738281 184.839844 C 182.449219 179.121094 185.59375 171.523438 185.582031 163.441406 C 185.570312 155.355469 182.410156 147.757812 176.691406 142.027344 C 170.800781 136.136719 163.0625 133.191406 155.324219 133.191406 Z M 155.324219 133.191406 " fill-opacity="1" fill-rule="nonzero"/><g clip-path="url(#9ce8a30683)"><path fill="#004aad" d="M 101.667969 354.433594 C 89.566406 354.433594 79.726562 344.585938 79.726562 332.472656 C 79.726562 320.359375 89.566406 310.507812 101.667969 310.507812 C 113.769531 310.507812 123.613281 320.359375 123.613281 332.472656 C 123.613281 344.585938 113.769531 354.433594 101.667969 354.433594 Z M 101.667969 321.976562 C 95.789062 321.976562 91.183594 326.585938 91.183594 332.472656 C 91.183594 338.257812 95.886719 342.964844 101.667969 342.964844 C 107.453125 342.964844 112.15625 338.257812 112.15625 332.472656 C 112.15625 326.6875 107.453125 321.976562 101.667969 321.976562 Z M 101.667969 321.976562 " fill-opacity="1" fill-rule="nonzero"/></g><g clip-path="url(#abf7a22441)"><path fill="#004aad" d="M 268.8125 354.433594 C 256.679688 354.433594 246.808594 344.585938 246.808594 332.472656 C 246.808594 320.359375 256.679688 310.507812 268.8125 310.507812 C 280.914062 310.507812 290.757812 320.359375 290.757812 332.472656 C 290.757812 344.585938 280.914062 354.433594 268.8125 354.433594 Z M 268.8125 321.976562 C 263 321.976562 258.269531 326.6875 258.269531 332.472656 C 258.269531 338.257812 263 342.964844 268.8125 342.964844 C 274.59375 342.964844 279.296875 338.257812 279.296875 332.472656 C 279.296875 326.6875 274.59375 321.976562 268.8125 321.976562 Z M 268.8125 321.976562 " fill-opacity="1" fill-rule="nonzero"/></g><g clip-path="url(#29300eeede)"><path fill="#004aad" d="M 268.8125 64.722656 C 256.679688 64.722656 246.808594 54.871094 246.808594 42.757812 C 246.808594 30.648438 256.679688 20.796875 268.8125 20.796875 C 280.914062 20.796875 290.757812 30.648438 290.757812 42.757812 C 290.757812 54.871094 280.914062 64.722656 268.8125 64.722656 Z M 268.8125 32.265625 C 263 32.265625 258.269531 36.976562 258.269531 42.757812 C 258.269531 48.542969 263 53.253906 268.8125 53.253906 C 274.59375 53.253906 279.296875 48.542969 279.296875 42.757812 C 279.296875 36.976562 274.59375 32.265625 268.8125 32.265625 Z M 268.8125 32.265625 " fill-opacity="1" fill-rule="nonzero"/></g><path fill="#004aad" d="M 18.070312 209.578125 C 5.96875 209.578125 -3.878906 199.726562 -3.878906 187.613281 C -3.878906 175.503906 5.96875 165.65625 18.070312 165.65625 C 30.199219 165.65625 40.070312 175.503906 40.070312 187.613281 C 40.070312 199.726562 30.199219 209.578125 18.070312 209.578125 Z M 18.070312 177.125 C 12.285156 177.125 7.582031 181.828125 7.582031 187.613281 C 7.582031 193.398438 12.285156 198.105469 18.070312 198.105469 C 23.882812 198.105469 28.609375 193.398438 28.609375 187.613281 C 28.609375 181.828125 23.882812 177.125 18.070312 177.125 Z M 18.070312 177.125 " fill-opacity="1" fill-rule="nonzero"/><g clip-path="url(#49c9044853)"><path fill="#004aad" d="M 352.355469 209.578125 C 340.253906 209.578125 330.410156 199.726562 330.410156 187.613281 C 330.410156 175.503906 340.253906 165.65625 352.355469 165.65625 C 364.457031 165.65625 374.300781 175.503906 374.300781 187.613281 C 374.300781 199.726562 364.457031 209.578125 352.355469 209.578125 Z M 352.355469 177.125 C 346.574219 177.125 341.871094 181.828125 341.871094 187.613281 C 341.871094 193.398438 346.574219 198.105469 352.355469 198.105469 C 358.136719 198.105469 362.839844 193.398438 362.839844 187.613281 C 362.839844 181.828125 358.136719 177.125 352.355469 177.125 Z M 352.355469 177.125 " fill-opacity="1" fill-rule="nonzero"/></g><g clip-path="url(#4669ff5eba)"><path fill="#004aad" d="M 101.667969 64.722656 C 89.566406 64.722656 79.726562 54.871094 79.726562 42.757812 C 79.726562 30.648438 89.566406 20.796875 101.667969 20.796875 C 113.769531 20.796875 123.613281 30.648438 123.613281 42.757812 C 123.613281 54.871094 113.769531 64.722656 101.667969 64.722656 Z M 101.667969 32.265625 C 95.886719 32.265625 91.183594 36.976562 91.183594 42.757812 C 91.183594 48.542969 95.886719 53.253906 101.667969 53.253906 C 107.453125 53.253906 112.15625 48.542969 112.15625 42.757812 C 112.15625 36.976562 107.453125 32.265625 101.667969 32.265625 Z M 101.667969 32.265625 " fill-opacity="1" fill-rule="nonzero"/></g></svg>